<mxfile host="app.diagrams.net" modified="2024-03-27T12:46:33.914Z" agent="Mozilla/5.0 (Windows NT 10.0; Win64; x64) AppleWebKit/537.36 (KHTML, like Gecko) Chrome/123.0.0.0 Safari/537.36" etag="wORrcP1E_No5xsTv_PK5" version="24.2.0" type="github">
  <diagram name="Page-1" id="zUf-bCjpPTD2KY6Ehy_6">
    <mxGraphModel dx="2102" dy="1758" grid="1" gridSize="10" guides="1" tooltips="1" connect="1" arrows="1" fold="1" page="1" pageScale="1" pageWidth="850" pageHeight="1100" math="0" shadow="0">
      <root>
        <mxCell id="0" />
        <mxCell id="1" parent="0" />
        <mxCell id="kiWz0XtB8iJnu-6BPr4o-74" value="Adm:Admin" style="shape=umlLifeline;perimeter=lifelinePerimeter;whiteSpace=wrap;html=1;container=0;dropTarget=0;collapsible=0;recursiveResize=0;outlineConnect=0;portConstraint=eastwest;newEdgeStyle={&quot;edgeStyle&quot;:&quot;elbowEdgeStyle&quot;,&quot;elbow&quot;:&quot;vertical&quot;,&quot;curved&quot;:0,&quot;rounded&quot;:0};fillColor=default;strokeColor=#000000;gradientColor=#CCE5FF;" vertex="1" parent="1">
          <mxGeometry x="42" y="40" width="100" height="570" as="geometry" />
        </mxCell>
        <mxCell id="kiWz0XtB8iJnu-6BPr4o-75" value="" style="html=1;points=[];perimeter=orthogonalPerimeter;outlineConnect=0;targetShapes=umlLifeline;portConstraint=eastwest;newEdgeStyle={&quot;edgeStyle&quot;:&quot;elbowEdgeStyle&quot;,&quot;elbow&quot;:&quot;vertical&quot;,&quot;curved&quot;:0,&quot;rounded&quot;:0};" vertex="1" parent="kiWz0XtB8iJnu-6BPr4o-74">
          <mxGeometry x="45" y="110" width="10" height="410" as="geometry" />
        </mxCell>
        <mxCell id="kiWz0XtB8iJnu-6BPr4o-76" value="Clb:Collaborateur" style="shape=umlLifeline;perimeter=lifelinePerimeter;whiteSpace=wrap;html=1;container=0;dropTarget=0;collapsible=0;recursiveResize=0;outlineConnect=0;portConstraint=eastwest;newEdgeStyle={&quot;edgeStyle&quot;:&quot;elbowEdgeStyle&quot;,&quot;elbow&quot;:&quot;vertical&quot;,&quot;curved&quot;:0,&quot;rounded&quot;:0};gradientColor=#CCE5FF;" vertex="1" parent="1">
          <mxGeometry x="720" y="40" width="100" height="570" as="geometry" />
        </mxCell>
        <mxCell id="kiWz0XtB8iJnu-6BPr4o-77" value="" style="group;fillColor=none;" vertex="1" connectable="0" parent="1">
          <mxGeometry x="15" y="124" width="1195" height="490.01" as="geometry" />
        </mxCell>
        <mxCell id="kiWz0XtB8iJnu-6BPr4o-78" value="&lt;b&gt;opt&lt;/b&gt;" style="shape=umlFrame;whiteSpace=wrap;html=1;pointerEvents=0;width=50;height=20;fillColor=#dae8fc;strokeColor=#6c8ebf;" vertex="1" parent="kiWz0XtB8iJnu-6BPr4o-77">
          <mxGeometry y="-2.72" width="835" height="492.73" as="geometry" />
        </mxCell>
        <mxCell id="kiWz0XtB8iJnu-6BPr4o-79" value="&lt;b&gt;[Authentifier = True]&lt;/b&gt;" style="text;html=1;align=center;verticalAlign=middle;resizable=0;points=[];autosize=1;strokeColor=none;fillColor=none;" vertex="1" parent="kiWz0XtB8iJnu-6BPr4o-77">
          <mxGeometry x="130.00365853658536" y="-5.003749999999997" width="140" height="30" as="geometry" />
        </mxCell>
        <mxCell id="kiWz0XtB8iJnu-6BPr4o-80" value="" style="group" vertex="1" connectable="0" parent="kiWz0XtB8iJnu-6BPr4o-77">
          <mxGeometry x="5.09" y="100" width="366.59" height="199" as="geometry" />
        </mxCell>
        <mxCell id="kiWz0XtB8iJnu-6BPr4o-81" value="&lt;b&gt;opt&lt;/b&gt;" style="shape=umlFrame;whiteSpace=wrap;html=1;pointerEvents=0;width=50;height=20;fillColor=#dae8fc;strokeColor=#6c8ebf;" vertex="1" parent="kiWz0XtB8iJnu-6BPr4o-80">
          <mxGeometry x="10" y="76" width="320" height="65" as="geometry" />
        </mxCell>
        <mxCell id="kiWz0XtB8iJnu-6BPr4o-87" value="&lt;span style=&quot;color: rgba(0, 0, 0, 0); font-family: monospace; font-size: 0px; text-align: start;&quot;&gt;%3CmxGraphModel%3E%3Croot%3E%3CmxCell%20id%3D%220%22%2F%3E%3CmxCell%20id%3D%221%22%20parent%3D%220%22%2F%3E%3CmxCell%20id%3D%222%22%20value%3D%22CreerOm(NumBcGenere%20%2C%20NumOm)%22%20style%3D%22html%3D1%3BverticalAlign%3Dbottom%3BendArrow%3Dblock%3BedgeStyle%3DelbowEdgeStyle%3Belbow%3Dhorizontal%3Bcurved%3D0%3Brounded%3D0%3BentryX%3D0.491%3BentryY%3D0.057%3BentryDx%3D0%3BentryDy%3D0%3BentryPerimeter%3D0%3B%22%20edge%3D%221%22%20parent%3D%221%22%3E%3CmxGeometry%20x%3D%22-0.0344%22%20y%3D%22-10%22%20relative%3D%221%22%20as%3D%22geometry%22%3E%3CmxPoint%20x%3D%22100%22%20y%3D%22380%22%20as%3D%22sourcePoint%22%2F%3E%3CArray%20as%3D%22points%22%3E%3CmxPoint%20x%3D%22200.4207317073171%22%20y%3D%22379.5875%22%2F%3E%3C%2FArray%3E%3CmxPoint%20x%3D%22534.9983799999998%22%20y%3D%22379.98737000000006%22%20as%3D%22targetPoint%22%2F%3E%3CmxPoint%20as%3D%22offset%22%2F%3E%3C%2FmxGeometry%3E%3C%2FmxCell%3E%3C%2Froot%3E%3C%2FmxGraphModel%3E&lt;/span&gt;" style="html=1;points=[];perimeter=orthogonalPerimeter;outlineConnect=0;targetShapes=umlLifeline;portConstraint=eastwest;newEdgeStyle={&quot;edgeStyle&quot;:&quot;elbowEdgeStyle&quot;,&quot;elbow&quot;:&quot;vertical&quot;,&quot;curved&quot;:0,&quot;rounded&quot;:0};" vertex="1" parent="kiWz0XtB8iJnu-6BPr4o-77">
          <mxGeometry x="750" y="20" width="10" height="420" as="geometry" />
        </mxCell>
        <mxCell id="kiWz0XtB8iJnu-6BPr4o-92" value="&lt;b&gt;Ordre de Mission du Missionné&lt;/b&gt;" style="text;html=1;align=center;verticalAlign=middle;resizable=0;points=[];autosize=1;strokeColor=none;fillColor=none;" vertex="1" parent="kiWz0XtB8iJnu-6BPr4o-77">
          <mxGeometry x="304.99532833020646" y="375.99640853658536" width="200" height="30" as="geometry" />
        </mxCell>
        <mxCell id="kiWz0XtB8iJnu-6BPr4o-109" value="Créer un compte" style="html=1;verticalAlign=bottom;endArrow=block;edgeStyle=elbowEdgeStyle;elbow=horizontal;curved=0;rounded=0;" edge="1" parent="kiWz0XtB8iJnu-6BPr4o-77">
          <mxGeometry x="-0.0185" y="10" relative="1" as="geometry">
            <mxPoint x="751" y="36" as="sourcePoint" />
            <Array as="points" />
            <mxPoint x="535" y="36" as="targetPoint" />
            <mxPoint as="offset" />
          </mxGeometry>
        </mxCell>
        <mxCell id="kiWz0XtB8iJnu-6BPr4o-93" value="S:Serveur" style="shape=umlLifeline;perimeter=lifelinePerimeter;whiteSpace=wrap;html=1;container=0;dropTarget=0;collapsible=0;recursiveResize=0;outlineConnect=0;portConstraint=eastwest;newEdgeStyle={&quot;edgeStyle&quot;:&quot;elbowEdgeStyle&quot;,&quot;elbow&quot;:&quot;vertical&quot;,&quot;curved&quot;:0,&quot;rounded&quot;:0};gradientColor=#CCE5FF;" vertex="1" parent="1">
          <mxGeometry x="260" y="41" width="100" height="569" as="geometry" />
        </mxCell>
        <mxCell id="kiWz0XtB8iJnu-6BPr4o-94" value="" style="html=1;points=[];perimeter=orthogonalPerimeter;outlineConnect=0;targetShapes=umlLifeline;portConstraint=eastwest;newEdgeStyle={&quot;edgeStyle&quot;:&quot;elbowEdgeStyle&quot;,&quot;elbow&quot;:&quot;vertical&quot;,&quot;curved&quot;:0,&quot;rounded&quot;:0};" vertex="1" parent="kiWz0XtB8iJnu-6BPr4o-93">
          <mxGeometry x="45" y="140" width="10" height="150" as="geometry" />
        </mxCell>
        <mxCell id="kiWz0XtB8iJnu-6BPr4o-95" value="Cu: Compte utilisateur" style="shape=umlLifeline;perimeter=lifelinePerimeter;whiteSpace=wrap;html=1;container=0;dropTarget=0;collapsible=0;recursiveResize=0;outlineConnect=0;portConstraint=eastwest;newEdgeStyle={&quot;edgeStyle&quot;:&quot;elbowEdgeStyle&quot;,&quot;elbow&quot;:&quot;vertical&quot;,&quot;curved&quot;:0,&quot;rounded&quot;:0};gradientColor=#CCE5FF;" vertex="1" parent="1">
          <mxGeometry x="480" y="40.5" width="130" height="529.5" as="geometry" />
        </mxCell>
        <mxCell id="kiWz0XtB8iJnu-6BPr4o-125" value="&lt;span style=&quot;color: rgba(0, 0, 0, 0); font-family: monospace; font-size: 0px; text-align: start;&quot;&gt;%3CmxGraphModel%3E%3Croot%3E%3CmxCell%20id%3D%220%22%2F%3E%3CmxCell%20id%3D%221%22%20parent%3D%220%22%2F%3E%3CmxCell%20id%3D%222%22%20value%3D%22CreerOm(NumBcGenere%20%2C%20NumOm)%22%20style%3D%22html%3D1%3BverticalAlign%3Dbottom%3BendArrow%3Dblock%3BedgeStyle%3DelbowEdgeStyle%3Belbow%3Dhorizontal%3Bcurved%3D0%3Brounded%3D0%3BentryX%3D0.491%3BentryY%3D0.057%3BentryDx%3D0%3BentryDy%3D0%3BentryPerimeter%3D0%3B%22%20edge%3D%221%22%20parent%3D%221%22%3E%3CmxGeometry%20x%3D%22-0.0344%22%20y%3D%22-10%22%20relative%3D%221%22%20as%3D%22geometry%22%3E%3CmxPoint%20x%3D%22100%22%20y%3D%22380%22%20as%3D%22sourcePoint%22%2F%3E%3CArray%20as%3D%22points%22%3E%3CmxPoint%20x%3D%22200.4207317073171%22%20y%3D%22379.5875%22%2F%3E%3C%2FArray%3E%3CmxPoint%20x%3D%22534.9983799999998%22%20y%3D%22379.98737000000006%22%20as%3D%22targetPoint%22%2F%3E%3CmxPoint%20as%3D%22offset%22%2F%3E%3C%2FmxGeometry%3E%3C%2FmxCell%3E%3C%2Froot%3E%3C%2FmxGraphModel%3E&lt;/span&gt;" style="html=1;points=[];perimeter=orthogonalPerimeter;outlineConnect=0;targetShapes=umlLifeline;portConstraint=eastwest;newEdgeStyle={&quot;edgeStyle&quot;:&quot;elbowEdgeStyle&quot;,&quot;elbow&quot;:&quot;vertical&quot;,&quot;curved&quot;:0,&quot;rounded&quot;:0};" vertex="1" parent="kiWz0XtB8iJnu-6BPr4o-95">
          <mxGeometry x="60" y="109.5" width="10" height="420" as="geometry" />
        </mxCell>
        <mxCell id="kiWz0XtB8iJnu-6BPr4o-96" value="" style="endArrow=open;endFill=1;html=1;rounded=0;" edge="1" parent="1" target="kiWz0XtB8iJnu-6BPr4o-87">
          <mxGeometry width="160" relative="1" as="geometry">
            <mxPoint x="97" y="457.2062799999999" as="sourcePoint" />
            <mxPoint x="720" y="457.2062799999999" as="targetPoint" />
          </mxGeometry>
        </mxCell>
        <mxCell id="kiWz0XtB8iJnu-6BPr4o-97" value="Notifier le Bénéficiaire&amp;nbsp; par son Matricule/nomPrenom" style="edgeLabel;html=1;align=center;verticalAlign=middle;resizable=0;points=[];" vertex="1" connectable="0" parent="kiWz0XtB8iJnu-6BPr4o-96">
          <mxGeometry x="-0.0482" relative="1" as="geometry">
            <mxPoint x="2" as="offset" />
          </mxGeometry>
        </mxCell>
        <mxCell id="kiWz0XtB8iJnu-6BPr4o-98" value="CreerOm(NumBcGenere , NumOm)" style="html=1;verticalAlign=bottom;endArrow=block;edgeStyle=elbowEdgeStyle;elbow=horizontal;curved=0;rounded=0;entryX=0.491;entryY=0.057;entryDx=0;entryDy=0;entryPerimeter=0;" edge="1" parent="1">
          <mxGeometry x="-0.0344" y="-10" relative="1" as="geometry">
            <mxPoint x="100" y="380" as="sourcePoint" />
            <Array as="points">
              <mxPoint x="200.4207317073171" y="379.5875" />
            </Array>
            <mxPoint x="534.9983799999998" y="379.98737000000006" as="targetPoint" />
            <mxPoint as="offset" />
          </mxGeometry>
        </mxCell>
        <mxCell id="kiWz0XtB8iJnu-6BPr4o-99" value="" style="endArrow=open;endFill=1;html=1;rounded=0;" edge="1" parent="1" source="kiWz0XtB8iJnu-6BPr4o-94">
          <mxGeometry width="160" relative="1" as="geometry">
            <mxPoint x="300" y="270" as="sourcePoint" />
            <mxPoint x="97" y="270" as="targetPoint" />
          </mxGeometry>
        </mxCell>
        <mxCell id="kiWz0XtB8iJnu-6BPr4o-100" value="Lister les Utilisateurs non validés" style="edgeLabel;html=1;align=center;verticalAlign=middle;resizable=0;points=[];" vertex="1" connectable="0" parent="kiWz0XtB8iJnu-6BPr4o-99">
          <mxGeometry x="0.0744" relative="1" as="geometry">
            <mxPoint x="8" y="1" as="offset" />
          </mxGeometry>
        </mxCell>
        <mxCell id="kiWz0XtB8iJnu-6BPr4o-101" value="" style="endArrow=open;endFill=1;html=1;rounded=0;" edge="1" parent="1">
          <mxGeometry width="160" relative="1" as="geometry">
            <mxPoint x="103" y="330" as="sourcePoint" />
            <mxPoint x="305" y="330" as="targetPoint" />
          </mxGeometry>
        </mxCell>
        <mxCell id="kiWz0XtB8iJnu-6BPr4o-102" value="&lt;span style=&quot;font-size: 12px; background-color: rgb(251, 251, 251);&quot;&gt;Solder(Bc)&lt;/span&gt;" style="edgeLabel;html=1;align=center;verticalAlign=middle;resizable=0;points=[];" vertex="1" connectable="0" parent="kiWz0XtB8iJnu-6BPr4o-101">
          <mxGeometry x="0.0786" y="-1" relative="1" as="geometry">
            <mxPoint as="offset" />
          </mxGeometry>
        </mxCell>
        <mxCell id="kiWz0XtB8iJnu-6BPr4o-103" value="" style="endArrow=open;endFill=1;html=1;rounded=0;" edge="1" parent="1">
          <mxGeometry width="160" relative="1" as="geometry">
            <mxPoint x="539" y="420.0079999999998" as="sourcePoint" />
            <mxPoint x="95" y="420.00800000000004" as="targetPoint" />
          </mxGeometry>
        </mxCell>
        <mxCell id="kiWz0XtB8iJnu-6BPr4o-104" value="Return" style="edgeLabel;html=1;align=center;verticalAlign=middle;resizable=0;points=[];" vertex="1" connectable="0" parent="kiWz0XtB8iJnu-6BPr4o-103">
          <mxGeometry x="0.0744" relative="1" as="geometry">
            <mxPoint x="8" y="1" as="offset" />
          </mxGeometry>
        </mxCell>
        <mxCell id="kiWz0XtB8iJnu-6BPr4o-105" value="&lt;b&gt;ref&lt;/b&gt;" style="shape=umlFrame;whiteSpace=wrap;html=1;pointerEvents=0;width=49;height=20;fillColor=#dae8fc;strokeColor=#6c8ebf;" vertex="1" parent="1">
          <mxGeometry x="40" y="470" width="789" height="80" as="geometry" />
        </mxCell>
        <mxCell id="kiWz0XtB8iJnu-6BPr4o-106" value="Valier User" style="swimlane;startSize=20;" vertex="1" parent="1">
          <mxGeometry x="-10" y="-40" width="910" height="700" as="geometry">
            <mxRectangle x="-10" y="-30" width="90" height="30" as="alternateBounds" />
          </mxGeometry>
        </mxCell>
        <mxCell id="kiWz0XtB8iJnu-6BPr4o-107" value="s: sequence model" style="shape=umlFrame;whiteSpace=wrap;html=1;pointerEvents=0;width=110;height=30;" vertex="1" parent="kiWz0XtB8iJnu-6BPr4o-106">
          <mxGeometry x="10" y="20" width="890" height="660" as="geometry" />
        </mxCell>
        <mxCell id="kiWz0XtB8iJnu-6BPr4o-127" value="" style="endArrow=open;endFill=1;html=1;rounded=0;" edge="1" parent="kiWz0XtB8iJnu-6BPr4o-106" target="kiWz0XtB8iJnu-6BPr4o-87">
          <mxGeometry width="160" relative="1" as="geometry">
            <mxPoint x="325" y="280" as="sourcePoint" />
            <mxPoint x="527" y="280" as="targetPoint" />
          </mxGeometry>
        </mxCell>
        <mxCell id="kiWz0XtB8iJnu-6BPr4o-128" value="&lt;span style=&quot;font-size: 12px; background-color: rgb(251, 251, 251);&quot;&gt;Utilisateur Enregisté, Attendre validation&lt;/span&gt;" style="edgeLabel;html=1;align=center;verticalAlign=middle;resizable=0;points=[];" vertex="1" connectable="0" parent="kiWz0XtB8iJnu-6BPr4o-127">
          <mxGeometry x="0.0786" y="-1" relative="1" as="geometry">
            <mxPoint as="offset" />
          </mxGeometry>
        </mxCell>
        <mxCell id="kiWz0XtB8iJnu-6BPr4o-126" value="Ajouter User à la base de donnée" style="html=1;verticalAlign=bottom;endArrow=block;edgeStyle=elbowEdgeStyle;elbow=horizontal;curved=0;rounded=0;" edge="1" parent="1">
          <mxGeometry x="-0.0185" y="10" relative="1" as="geometry">
            <mxPoint x="540" y="197" as="sourcePoint" />
            <Array as="points" />
            <mxPoint x="315" y="197" as="targetPoint" />
            <mxPoint as="offset" />
          </mxGeometry>
        </mxCell>
      </root>
    </mxGraphModel>
  </diagram>
</mxfile>
